<?xml version="1.0" encoding="UTF-8"?>
<svg version="1.1" xmlns="http://www.w3.org/2000/svg" width="1280" height="731">
<path d="M0 0 C6.80381336 2.72446402 13.3452151 4.52820924 20.71435547 4.97338867 C26.13704333 5.3097326 26.13704333 5.3097326 28.33935547 6.41088867 C28.75341797 8.44995117 28.75341797 8.44995117 28.96435547 11.03588867 C29.03783203 11.93307617 29.11130859 12.83026367 29.18701172 13.75463867 C29.37240734 16.98717776 29.40971698 20.17425926 29.33935547 23.41088867 C30.48404297 22.97776367 30.48404297 22.97776367 31.65185547 22.53588867 C34.65180697 21.62064923 37.32418559 21.070838 40.40185547 20.59838867 C49.27706376 19.04913039 57.29946702 15.43100818 65.33935547 11.47338867 C92.69438511 -1.31211431 125.07118663 -3.25116558 153.60498047 6.90698242 C176.22667209 15.66548554 195.90610311 31.54469788 208.33935547 52.41088867 C208.71398926 53.03801758 209.08862305 53.66514648 209.47460938 54.3112793 C225.79002092 82.17119445 231.68466356 114.41082038 228.33935547 146.41088867 C228.00935547 146.74088867 227.67935547 147.07088867 227.33935547 147.41088867 C227.40208681 148.82861702 227.49141177 150.24515709 227.58935547 151.66088867 C227.72421363 164.57355775 223.55643961 184.58526245 216.33935547 195.41088867 C215.67935547 195.41088867 215.01935547 195.41088867 214.33935547 195.41088867 C214.41798828 196.70381836 214.49662109 197.99674805 214.57763672 199.32885742 C214.56586833 204.80971726 212.88329964 208.84614288 210.52685547 213.72338867 C210.12378174 214.58295166 209.72070801 215.44251465 209.30541992 216.328125 C199.14512341 237.65950942 186.93175319 256.67297703 171.33935547 274.41088867 C170.75025391 275.11084961 170.16115234 275.81081055 169.55419922 276.53198242 C150.74568561 298.76022578 125.02417065 320.85283318 95.33935547 325.41088867 C94.39189453 325.57459961 93.44443359 325.73831055 92.46826172 325.90698242 C80.04016652 327.54270187 68.02949118 324.46992856 56.66357422 319.61499023 C47.81341686 315.83898626 38.91306952 314.02513139 29.33935547 313.41088867 C29.36255859 314.39831055 29.38576172 315.38573242 29.40966797 316.40307617 C29.42771484 317.6844043 29.44576172 318.96573242 29.46435547 320.28588867 C29.48755859 321.56206055 29.51076172 322.83823242 29.53466797 324.15307617 C29.33935547 327.41088867 29.33935547 327.41088867 27.33935547 329.41088867 C25.14134516 329.75561683 22.92909691 330.01123976 20.71435547 330.22338867 C12.20029541 331.18560472 4.41190709 333.62644333 -3.66064453 336.41088867 C-26.30367798 344.20690372 -47.02215691 344.94033127 -69.07177734 334.60424805 C-88.1047168 325.15657208 -106.81591144 310.65809015 -120.66064453 294.41088867 C-120.66064453 293.75088867 -120.66064453 293.09088867 -120.66064453 292.41088867 C-121.32064453 292.41088867 -121.98064453 292.41088867 -122.66064453 292.41088867 C-124.07770955 290.86200365 -125.41873949 289.24327333 -126.72314453 287.59838867 C-130.2709496 283.14403181 -130.2709496 283.14403181 -133.90283203 278.75854492 C-140.14688836 271.37011528 -145.46065528 263.54722873 -150.66064453 255.41088867 C-151.10698242 254.7210791 -151.55332031 254.03126953 -152.01318359 253.32055664 C-159.18547469 242.18999687 -165.11968309 230.72711319 -170.60742188 218.68334961 C-171.47772926 216.80555148 -172.40037989 214.95210986 -173.33642578 213.10620117 C-195.13261785 169.74881641 -197.57090983 117.32742695 -183.34814453 71.53588867 C-176.57373275 52.39081189 -165.8092622 35.87046497 -151.66064453 21.41088867 C-150.69191406 20.38415039 -150.69191406 20.38415039 -149.70361328 19.33666992 C-148.4041059 17.98024981 -147.04094008 16.68500764 -145.66064453 15.41088867 C-145.00064453 15.41088867 -144.34064453 15.41088867 -143.66064453 15.41088867 C-143.66064453 14.75088867 -143.66064453 14.09088867 -143.66064453 13.41088867 C-101.81185306 -21.45058214 -47.80674243 -19.38834832 0 0 Z " fill="#404040" transform="translate(607.66064453125,283.589111328125)"/>
<path d="M0 0 C8.32597624 7.61600927 15.42985298 15.72498262 21.22119141 25.44433594 C21.5958252 26.07146484 21.97045898 26.69859375 22.35644531 27.34472656 C38.67185686 55.20464171 44.5664995 87.44426765 41.22119141 119.44433594 C40.89119141 119.77433594 40.56119141 120.10433594 40.22119141 120.44433594 C40.28392275 121.86206429 40.37324771 123.27860435 40.47119141 124.69433594 C40.60604957 137.60700501 36.43827555 157.61870972 29.22119141 168.44433594 C28.56119141 168.44433594 27.90119141 168.44433594 27.22119141 168.44433594 C27.29982422 169.73726562 27.37845703 171.03019531 27.45947266 172.36230469 C27.44770427 177.84316453 25.76513558 181.87959015 23.40869141 186.75683594 C23.00561768 187.61639893 22.60254395 188.47596191 22.18725586 189.36157227 C12.02695934 210.69295668 -0.18641087 229.70642429 -15.77880859 247.44433594 C-16.36791016 248.14429688 -16.95701172 248.84425781 -17.56396484 249.56542969 C-36.37247845 271.79367304 -62.09399341 293.88628045 -91.77880859 298.44433594 C-92.72626953 298.60804688 -93.67373047 298.77175781 -94.64990234 298.94042969 C-107.08495277 300.57706455 -119.08462619 297.49554962 -130.45898438 292.6484375 C-140.21092403 288.49546079 -149.08442739 287.33553437 -159.77880859 286.44433594 C-159.77880859 190.74433594 -159.77880859 95.04433594 -159.77880859 -3.55566406 C-153.50880859 -4.87566406 -147.23880859 -6.19566406 -140.77880859 -7.55566406 C-134.1638662 -9.84082598 -128.04566154 -12.42384861 -121.77880859 -15.49316406 C-82.10249659 -34.03752728 -33.30107308 -29.12358463 0 0 Z " fill="#424241" transform="translate(794.77880859375,310.5556640625)"/>
<path d="M0 0 C1.53301706 42.66897472 -11.7736469 93.26076344 -40.75 125.5 C-42.16608296 127.00055106 -43.58269072 128.50060717 -45 130 C-46.04947388 131.24345246 -47.09195994 132.49286131 -48.125 133.75 C-51.0571324 137.19812218 -54.28981409 140.38948259 -58 143 C-58.66 143 -59.32 143 -60 143 C-60 143.66 -60 144.32 -60 145 C-62.2330961 146.77415635 -64.45789637 148.39955163 -66.8125 150 C-67.52736572 150.48621826 -68.24223145 150.97243652 -68.97875977 151.47338867 C-82.41266893 160.41821893 -96.54179952 167.36216764 -112 172 C-112.64469238 172.19819336 -113.28938477 172.39638672 -113.95361328 172.60058594 C-132.81871538 178.27494838 -166.70256522 184.14871739 -185 175 C-184.93417725 175.64026123 -184.86835449 176.28052246 -184.80053711 176.94018555 C-184.50520473 179.85524016 -184.22124866 182.77129601 -183.9375 185.6875 C-183.83373047 186.69490234 -183.72996094 187.70230469 -183.62304688 188.74023438 C-183.52958984 189.71669922 -183.43613281 190.69316406 -183.33984375 191.69921875 C-183.20630493 193.04246216 -183.20630493 193.04246216 -183.07006836 194.4128418 C-183 197 -183 197 -184 202 C-189.61 202 -195.22 202 -201 202 C-203.24230769 194.15192308 -203.24230769 194.15192308 -203.7109375 190.21484375 C-203.81913818 189.36132324 -203.92733887 188.50780273 -204.03881836 187.62841797 C-204.1497583 186.74041504 -204.26069824 185.85241211 -204.375 184.9375 C-205.53445035 176.30578614 -207.22714109 168.27608082 -210 160 C-210.28488281 159.10925781 -210.56976562 158.21851563 -210.86328125 157.30078125 C-215.87628185 142.52678388 -223.17189346 125.37324962 -234.65112305 114.42529297 C-236 113 -236 113 -236 111 C-236.66 111 -237.32 111 -238 111 C-242.0541743 106.95396661 -245.54059284 102.93607304 -246.875 97.3125 C-245.25735598 91.18856191 -241.16361666 87.59251251 -236.0625 84.0625 C-232.23075272 81.86563156 -229.44662178 81.17655152 -225 82 C-220.4687136 85.28835032 -217.47110341 88.76899904 -214.5625 93.5625 C-214.17908447 94.18036377 -213.79566895 94.79822754 -213.40063477 95.43481445 C-212.62301423 96.69398083 -211.85039224 97.95624901 -211.08300781 99.22167969 C-210.12344385 100.79730275 -209.13779402 102.35697396 -208.1484375 103.9140625 C-196.99571405 121.99267814 -184.89252518 149.40424097 -186 171 C-184.68 170.01 -183.36 169.02 -182 168 C-182.2475 167.13761719 -182.2475 167.13761719 -182.5 166.2578125 C-182.99673521 164.01474256 -183.06756705 162.16383391 -183 159.875 C-182.95298548 156.72099724 -183.10407543 153.70000204 -183.484375 150.5703125 C-187.10548207 115.8038324 -181.05514336 80.58830244 -160 52 C-156.748962 47.99455991 -153.23379641 44.24306044 -149.58862305 40.59545898 C-148.43522633 39.43709914 -147.29808651 38.26248016 -146.17114258 37.07836914 C-141.47149199 32.20881662 -136.54813988 28.21129914 -130.9375 24.4375 C-130.10677979 23.87667725 -129.27605957 23.31585449 -128.42016602 22.73803711 C-101.10930127 4.67488004 -30.68589957 -17.97316975 0 0 Z " fill="#404040" transform="translate(828,76)"/>
<path d="M0 0 C8.32597624 7.61600927 15.42985298 15.72498262 21.22119141 25.44433594 C21.5958252 26.07146484 21.97045898 26.69859375 22.35644531 27.34472656 C33.43887141 46.26888608 39.20617455 66.40367595 41.47119141 88.13183594 C41.56376221 88.95538574 41.65633301 89.77893555 41.75170898 90.62744141 C42.3394031 97.07315821 42.09099074 103.38592778 41.73583984 109.83422852 C41.6870871 110.7599894 41.63833435 111.68575027 41.58810425 112.63956451 C41.46828865 114.90796639 41.34591857 117.17619971 41.22119141 119.44433594 C28.7807784 119.94422395 16.34578157 120.29023022 3.89612865 120.45211315 C-1.8891127 120.5319176 -7.66392629 120.66009049 -13.44458008 120.90844727 C-55.38408496 122.65261156 -55.38408496 122.65261156 -68.72083187 110.82172489 C-73.8623702 105.86484749 -78.34535251 100.38269805 -82.50643921 94.58877563 C-85.35581658 90.6458888 -88.46815952 87.00416276 -91.77880859 83.44433594 C-92.22297119 82.88975708 -92.66713379 82.33517822 -93.12475586 81.76379395 C-95.4948448 79.87314514 -97.25320977 80.04574716 -100.26000977 80.01196289 C-101.38094528 79.99216873 -102.5018808 79.97237457 -103.65678406 79.95198059 C-104.86623184 79.94559067 -106.07567963 79.93920074 -107.32177734 79.93261719 C-108.56051102 79.91466599 -109.79924469 79.89671478 -111.07551575 79.8782196 C-114.36510319 79.83318517 -117.65449318 79.80090944 -120.9442749 79.77478027 C-124.3026678 79.74497655 -127.66082904 79.69860717 -131.01904297 79.65332031 C-137.60565055 79.56571619 -144.19169665 79.50577892 -150.77880859 79.44433594 C-150.77880859 70.86433594 -150.77880859 62.28433594 -150.77880859 53.44433594 C-141.86871673 53.30869693 -132.95931217 53.19865746 -124.04842091 53.13346291 C-119.91055207 53.10217007 -115.77342705 53.05973713 -111.63598633 52.99169922 C-107.6418345 52.92642984 -103.6483973 52.89061448 -99.65375328 52.87507248 C-98.13104693 52.86399938 -96.60837903 52.8423749 -95.08597755 52.8099556 C-83.13485835 52.56561672 -83.13485835 52.56561672 -79.83938599 54.70108032 C-78.54223633 56.26953125 -78.54223633 56.26953125 -76.77880859 59.44433594 C-75.54656558 60.6083269 -74.28345396 61.74117305 -72.98193359 62.82714844 C-68.67608776 66.5083434 -64.57608696 70.35669648 -60.52880859 74.31933594 C-59.83529297 74.97546875 -59.14177734 75.63160156 -58.42724609 76.30761719 C-54.27421596 80.38904336 -51.66271102 84.03713955 -49.63769531 89.51708984 C-48.05367533 93.07145417 -45.140835 94.76332273 -41.77880859 96.44433594 C-36.20455408 97.11324648 -32.98406068 95.96980251 -28.51318359 92.85058594 C-25.31787853 90.25979805 -24.03881253 88.20527171 -23.43505859 84.11621094 C-23.17477504 79.7694756 -23.22452145 76.46454846 -25.96630859 72.94433594 C-30.90429988 68.55501035 -34.94568398 68.01815178 -41.41162109 68.10449219 C-44.69061131 68.57523831 -46.37755266 70.25495552 -48.77880859 72.44433594 C-50.84130859 72.50683594 -50.84130859 72.50683594 -52.77880859 71.44433594 C-54.1356461 69.79674754 -55.4633758 68.12516672 -56.77880859 66.44433594 C-57.98715718 65.33782995 -59.21883698 64.25653949 -60.46630859 63.19433594 C-65.15626102 59.18815227 -69.4566784 54.83958487 -73.77880859 50.44433594 C-74.52646484 49.73664063 -75.27412109 49.02894531 -76.04443359 48.29980469 C-77.77880859 46.44433594 -77.77880859 46.44433594 -77.77880859 44.44433594 C-101.86880859 44.44433594 -125.95880859 44.44433594 -150.77880859 44.44433594 C-150.77880859 36.19433594 -150.77880859 27.94433594 -150.77880859 19.44433594 C-143.05967584 19.26328276 -135.34133822 19.11665324 -127.62059593 19.02983856 C-124.03499585 18.98816046 -120.45092867 18.93168146 -116.86621094 18.84082031 C-113.40365286 18.75360922 -109.94256435 18.7060063 -106.47899246 18.68531799 C-104.52101339 18.66343538 -102.56362254 18.60102372 -100.60653687 18.53796387 C-91.83251693 18.53354871 -91.83251693 18.53354871 -88.73809814 21.20825195 C-87.171875 23.36816406 -87.171875 23.36816406 -85.99990845 25.52648926 C-84.52776299 27.83862554 -83.31035229 28.47367181 -80.77880859 29.44433594 C-75.94977345 30.12964456 -71.9264441 29.96401994 -67.46630859 27.94433594 C-62.55880872 23.37921978 -59.51592056 19.17941689 -59.21630859 12.31933594 C-59.48672409 7.67957532 -60.55373147 4.91749591 -63.77880859 1.44433594 C-68.89457798 -2.52299542 -72.82376628 -2.99831617 -79.22802734 -2.98925781 C-82.17051618 -2.48907977 -83.50374924 -1.4242858 -85.77880859 0.44433594 C-86.43880859 0.44433594 -87.09880859 0.44433594 -87.77880859 0.44433594 C-89.31805408 3.4128808 -90.52526863 6.31048602 -91.77880859 9.44433594 C-111.24880859 9.44433594 -130.71880859 9.44433594 -150.77880859 9.44433594 C-150.77880859 5.15433594 -150.77880859 0.86433594 -150.77880859 -3.55566406 C-152.09880859 -3.88566406 -153.41880859 -4.21566406 -154.77880859 -4.55566406 C-153.79783203 -4.77480469 -152.81685547 -4.99394531 -151.80615234 -5.21972656 C-142.03388419 -7.48416665 -133.00536458 -10.62947003 -123.77880859 -14.55566406 C-82.22673595 -32.12662665 -35.259884 -30.83667044 0 0 Z " fill="#414141" transform="translate(794.77880859375,310.5556640625)"/>
<path d="M0 0 C2.97 0 5.94 0 9 0 C9 4.29 9 8.58 9 13 C28.47 12.67 47.94 12.34 68 12 C68.66 10.35 69.32 8.7 70 7 C76.04681158 0.33300262 76.04681158 0.33300262 80.3828125 -0.40625 C87.88842367 -0.66285209 92.3995653 0.97767469 98 6 C101.4084061 9.7182612 101.57065659 13.55485358 101.41796875 18.43359375 C100.51221147 23.99511274 97.39185052 27.73762395 93.3125 31.4375 C88.64385748 34.59198819 84.54172005 34.61385207 79 34 C74.58859823 31.79429911 71.77869845 29.06117466 69 25 C69 24.34 69 23.68 69 23 C49.2 23 29.4 23 9 23 C9 31.25 9 39.5 9 48 C33.09 48 57.18 48 82 48 C82 48.66 82 49.32 82 50 C82.88945313 50.38285156 82.88945313 50.38285156 83.796875 50.7734375 C86.2267449 52.12623741 87.49236266 53.48341276 89.25 55.625 C92.94429594 59.99314821 96.91875022 63.9959167 101 68 C101.95954411 68.95712102 102.91807494 69.91526046 103.875 70.875 C104.57625 71.57625 105.2775 72.2775 106 73 C106.66 73.66 107.32 74.32 108 75 C110.57038148 74.74296185 111.83910253 74.13442502 113.828125 72.47265625 C117.59681554 69.91726716 121.61310359 70.49943496 126 71 C130.82646608 72.63917716 134.69446585 75.35974772 137 80 C137.98692966 84.43005267 137.88294691 88.21301189 135.85546875 92.31640625 C132.90954645 96.53708121 129.98880321 99.37100303 125 101 C120.73689853 101.53288768 118.62594591 101.33138313 114.8125 99.3125 C111.04811033 96.21733516 108.54229426 93.64165344 106.99609375 88.9609375 C104.57650078 83.20075491 99.65928243 79.20424097 95.25 74.9375 C94.36828125 74.06544922 93.4865625 73.19339844 92.578125 72.29492188 C88.77638832 68.55824468 84.96205437 64.90937802 80.859375 61.50390625 C79.91578125 60.67761719 78.9721875 59.85132813 78 59 C78 58.34 78 57.68 78 57 C55.23 57 32.46 57 9 57 C9 65.58 9 74.16 9 83 C12.92648437 82.88398438 16.85296875 82.76796875 20.8984375 82.6484375 C24.72436453 82.57032881 28.55020095 82.50967989 32.37646484 82.45068359 C35.02465926 82.40055902 37.67257919 82.33243799 40.31982422 82.24560547 C44.13838492 82.1235379 47.9532741 82.06742515 51.7734375 82.0234375 C52.94675629 81.97182465 54.12007507 81.92021179 55.32894897 81.86703491 C62.03157118 81.86251641 65.54449845 82.79307897 70.38916016 87.56103516 C71.95488169 89.34923187 73.49387453 91.16132725 75 93 C76.22090838 94.3255933 77.44236955 95.65067782 78.66455078 96.97509766 C81.17838218 99.86657168 83.24453752 102.88936945 85.33154297 106.09912109 C91.04479637 114.05922685 97.11747315 120.33708988 106.98254395 122.08166504 C120.46528192 123.78911354 134.21164266 123.14926086 147.75866699 122.72027588 C153.39680532 122.56070207 159.03584216 122.50502988 164.67578125 122.4453125 C171.00180572 122.37806995 177.32543824 122.30247033 183.64968872 122.13394165 C184.60246704 122.11133774 185.55524536 122.08873383 186.53689575 122.06544495 C188.31850194 122.02195364 190.09993843 121.97053311 191.88104248 121.90986633 C193.92039106 121.86358021 195.96162587 121.92179557 198 122 C200 124 200 124 200.1953125 126.1640625 C200.17210937 126.97617187 200.14890625 127.78828125 200.125 128.625 C200.10695313 129.44226563 200.08890625 130.25953125 200.0703125 131.1015625 C200.04710937 131.72804688 200.02390625 132.35453125 200 133 C186.9519072 133.0546735 173.90454888 133.06635461 160.85639095 133.02334595 C154.79731416 133.00472104 148.73897858 133.00083319 142.67993164 133.03076172 C136.83102853 133.05910779 130.98336294 133.04856337 125.13452339 133.01119995 C122.90465107 133.00376083 120.67468663 133.01026948 118.44489861 133.03103638 C115.31726583 133.0577683 112.19363503 133.03463791 109.06616211 133 C108.14690445 133.01941147 107.22764679 133.03882294 106.28053284 133.05882263 C102.41329766 132.97147779 99.96725092 132.81034749 96.93922997 130.27351952 C95.165806 128.25274697 93.58686893 126.16833269 92 124 C90.91397811 122.83236655 89.81085706 121.68011494 88.68261719 120.55322266 C87.85706329 119.72294052 87.85706329 119.72294052 87.01483154 118.87588501 C86.44790588 118.31098358 85.88098022 117.74608215 85.296875 117.1640625 C84.39017059 116.255923 84.39017059 116.255923 83.46514893 115.32943726 C82.20260206 114.06621658 80.9388185 112.80423077 79.67382812 111.54345703 C77.73710444 109.61214044 75.80584276 107.67547546 73.875 105.73828125 C72.64094591 104.50488717 71.40658208 103.27180289 70.171875 102.0390625 C69.59685242 101.46201569 69.02182983 100.88496887 68.42938232 100.29043579 C66.04570502 97.92073075 63.80598225 95.87065483 61 94 C61 93.34 61 92.68 61 92 C43.84 92 26.68 92 9 92 C9 111.14 9 130.28 9 150 C27.48 150 45.96 150 65 150 C65.66 148.68 66.32 147.36 67 146 C68.4375 143.75 68.4375 143.75 71 142 C75.64980097 141.1290849 80.04357041 140.88008917 84.23828125 143.28125 C86.66985025 145.33524617 88.57033624 147.14067247 90 150 C90.39231417 154.70777 90.47336758 157.07079697 88.3125 161.3125 C85.52417771 164.55298267 83.4224864 166.6454898 79.078125 167.28125 C74.5666059 167.48477718 71.62215833 166.89772667 68 164 C67.35939888 162.97274811 67.35939888 162.97274811 66.70585632 161.92474365 C65.13878646 159.77071821 65.13878646 159.77071821 62.51325989 159.48101807 C61.52508774 159.47213562 60.53691559 159.46325317 59.51879883 159.45410156 C58.39786331 159.43438293 57.2769278 159.41466431 56.12202454 159.39434814 C54.91257675 159.39311951 53.70312897 159.39189087 52.45703125 159.390625 C51.21829758 159.37408875 49.9795639 159.35755249 48.70329285 159.34051514 C45.41361889 159.30013212 42.12440272 159.27683936 38.83453369 159.26177979 C35.47611882 159.24221463 32.1179851 159.20046045 28.75976562 159.16015625 C22.17299729 159.08273676 15.58746079 159.04237672 9 159 C9 167.58 9 176.16 9 185 C42.33 185 75.66 185 110 185 C110.33 183.35 110.66 181.7 111 180 C113.16619047 177.49534227 114.82692024 176.21387642 118.12109375 175.61328125 C123.57476987 175.34657534 126.7161129 176.43009408 131 180 C131.54527344 180.4125 132.09054687 180.825 132.65234375 181.25 C134.65588543 183.85170051 134.29159197 185.96064879 134.1875 189.1875 C134.14689453 190.81751953 134.14689453 190.81751953 134.10546875 192.48046875 C134.07066406 193.31191406 134.03585937 194.14335937 134 195 C133.34 195 132.68 195 132 195 C131.731875 195.598125 131.46375 196.19625 131.1875 196.8125 C129.95902756 199.07547555 128.99342924 200.38175132 127 202 C122.73559546 202.9617276 118.61979817 202.93581979 114.7890625 200.72265625 C113.00605421 199.23439014 111.43133121 197.82944982 110 196 C110 195.34 110 194.68 110 194 C76.67 194 43.34 194 9 194 C9 202.58 9 211.16 9 220 C36.72 220 64.44 220 93 220 C93.33 218.35 93.66 216.7 94 215 C96.83885202 210.97894111 100.12116457 208.3683991 104.98828125 207.4140625 C111.08316622 207.21671878 115.37109861 207.71826622 120 212 C124.38103991 216.97307233 125.35654869 219.87178182 125.28125 226.39453125 C124.71863814 231.60650499 122.2698178 234.8230957 118.4375 238.375 C113.40547676 241.72968216 107.86315074 241.88885039 102 241 C99.16631767 239.42033146 96.96451583 237.58806522 95 235 C95 234.34 95 233.68 95 233 C94.34 233 93.68 233 93 233 C93 231.68 93 230.36 93 229 C65.28 229 37.56 229 9 229 C9 237.58 9 246.16 9 255 C24.51 255 40.02 255 56 255 C56.33 253.35 56.66 251.7 57 250 C59.52219134 246.21671299 61.96597283 244.05463364 66 242 C70.94003292 241.12101483 75.84105406 240.9995967 80.453125 243.13671875 C84.60852071 246.06858128 87.47932011 249.05779037 89 254 C89.64335031 258.98392897 89.61005812 262.75641999 87.375 267.3125 C83.57886499 271.60812646 79.92656944 275.54377003 73.94921875 276.23828125 C68.40087312 276.42035131 65.3515404 275.75814853 61 272 C56 266.81481481 56 266.81481481 56 264 C40.49 264 24.98 264 9 264 C9 272.58 9 281.16 9 290 C6.03 290 3.06 290 0 290 C0 194.3 0 98.6 0 0 Z " fill="#EDEDEC" transform="translate(635,307)"/>
<path d="M0 0 C2.4375 1.0625 2.4375 1.0625 4 3 C4.48258091 6.79170715 4.51879045 9.08032602 2.625 12.4375 C1 14 1 14 -1 14 C-0.505 22.91 -0.505 22.91 0 32 C3.72690262 28.23382244 3.72690262 28.23382244 7.44799805 24.46191406 C15.74304534 16.12323085 15.74304534 16.12323085 20.1875 15.6875 C23 16 23 16 25 17 C25.28125 19.1953125 25.28125 19.1953125 25 22 C23.09375 24.4296875 23.09375 24.4296875 20.5 26.875 C19.57960938 27.7515625 18.65921875 28.628125 17.7109375 29.53125 C14.91272803 32.07947534 12.07263613 34.56548088 9.1953125 37.0234375 C5.80487047 40.07604189 2.63620392 43.34342628 -0.56884766 46.58837891 C-3.91580963 49.96080113 -7.35693492 53.14686381 -10.984375 56.21875 C-13.15483776 58.13683337 -15.19484589 60.14667034 -17.234375 62.203125 C-17.94303711 62.91629883 -18.65169922 63.62947266 -19.38183594 64.36425781 C-19.91583008 64.90405273 -20.44982422 65.44384766 -21 66 C-17.06739056 66.07421454 -13.13505278 66.12863136 -9.2019043 66.16479492 C-7.20672299 66.18728333 -5.21173787 66.22540198 -3.21679688 66.26367188 C-1.96318359 66.27333984 -0.70957031 66.28300781 0.58203125 66.29296875 C1.73936768 66.3086792 2.8967041 66.32438965 4.08911133 66.34057617 C7.37031296 65.9566731 7.91303056 65.39103634 10 63 C13.57400356 62.6101087 16.09763163 62.62979759 19.4375 64 C21.46098457 66.59006025 21.62026024 68.81736393 21.453125 72.05859375 C21 74 21 74 18.8125 76.5 C15.7706716 78.12230848 14.37391202 78.60557395 11 78 C8.6875 76.6875 8.6875 76.6875 7 75 C7 74.01 7 73.02 7 72 C2.09110459 71.84452856 -2.8103192 71.77093184 -7.72167969 71.76806641 C-9.38603744 71.75617354 -11.05039964 71.72319312 -12.71386719 71.66748047 C-23.36075704 71.1792419 -23.36075704 71.1792419 -32.68261719 75.60644531 C-35.7512284 78.50582708 -38.34403193 81.72487539 -41 85 C-42.55149054 86.45147029 -44.128337 87.8773755 -45.75 89.25 C-46.38421875 89.79140625 -47.0184375 90.3328125 -47.671875 90.890625 C-48.11015625 91.25671875 -48.5484375 91.6228125 -49 92 C-48.18781802 96.85850179 -45.57157537 99.7118838 -42.10205078 103.06591797 C-35.72752359 107.04033985 -28.22532332 106.19356806 -20.9375 106.0625 C-19.292305 106.06557937 -17.64711235 106.07270609 -16.00195312 106.08398438 C-11.99980449 106.10269599 -8.00160265 106.06650775 -4 106 C-3.5359375 105.0409375 -3.5359375 105.0409375 -3.0625 104.0625 C-2 102 -2 102 -1 101 C2.63728675 100.58667196 4.60536403 100.79410297 7.875 102.5 C10.10653089 105.12533046 10.38744784 105.78479929 10.5625 109.0625 C10 113 10 113 8.4375 115 C5.09763163 116.37020241 2.57400356 116.3898913 -1 116 C-2.9375 114.625 -2.9375 114.625 -4 113 C-4 112.34 -4 111.68 -4 111 C-5.60270752 111.07069702 -5.60270752 111.07069702 -7.23779297 111.14282227 C-11.24408734 111.30708654 -15.25009239 111.40951868 -19.25878906 111.49438477 C-20.9855369 111.53934209 -22.71194801 111.60053584 -24.4375 111.67895508 C-40.60565941 112.39473297 -40.60565941 112.39473297 -47.0078125 106.65234375 C-48.37992271 105.1380531 -49.71717054 103.59063232 -51 102 C-51.98827852 100.98841433 -52.98336882 99.98308751 -54 99 C-58.07047689 100.65178772 -60.97897797 103.53138175 -64.125 106.5 C-64.69541016 107.03246338 -65.26582031 107.56492676 -65.85351562 108.11352539 C-71.01928775 112.96112636 -76.03042794 117.95168472 -81 123 C-82.65 124.65 -84.3 126.3 -86 128 C-69.83 128 -53.66 128 -37 128 C-36.01 126.02 -36.01 126.02 -35 124 C-34 123 -34 123 -31.25 122.6875 C-27.2054922 123.07639498 -25.69827023 123.98428621 -23 127 C-22.27432674 130.78962702 -22.72222101 132.48888666 -24.5625 135.875 C-27 138 -27 138 -30.5625 138.5 C-34 138 -34 138 -35.9375 136.625 C-37 135 -37 135 -37 133 C-44.75608237 132.86326343 -52.50933083 132.81387975 -60.26660156 132.82299805 C-62.90084224 132.81605564 -65.53511059 132.78968312 -68.16894531 132.74291992 C-84.53167033 131.71093747 -84.53167033 131.71093747 -99.03082275 137.78935242 C-101.25750654 140.03257825 -103.13849892 142.44945449 -105 145 C-106.5010917 146.58147525 -108.0184655 148.14792287 -109.5625 149.6875 C-110.46162109 150.65236328 -110.46162109 150.65236328 -111.37890625 151.63671875 C-113 153 -113 153 -116 153 C-118.32845886 149.36178302 -118.23553948 146.23971058 -118 142 C-116.6160926 139.2321852 -114.64392635 138.5757498 -112 137 C-105.46325681 131.6456711 -99.56345916 125.59059498 -93.62109375 119.59765625 C-83.93684211 110 -83.93684211 110 -81 110 C-81 88.22 -81 66.44 -81 44 C-82.32 43.34 -83.64 42.68 -85 42 C-86.0625 38.6875 -86.0625 38.6875 -86 35 C-83.9375 32 -83.9375 32 -81 30 C-77.76578825 30 -75.88622381 30.46826572 -73.125 32.125 C-71.34481666 35.09197223 -71.69874808 37.62597847 -72 41 C-72.66 41.99 -73.32 42.98 -74 44 C-74.66 44 -75.32 44 -76 44 C-75.67 63.14 -75.34 82.28 -75 102 C-72.36 99.69 -69.72 97.38 -67 95 C-65.60458984 93.99831787 -64.20917969 92.99663574 -62.77148438 91.96459961 C-56.16915974 87.01435044 -50.98735025 82.4566991 -49.6171875 74.00830078 C-49.01699706 67.18228382 -49.23889578 60.4001073 -49.5 53.5625 C-49.53210071 51.17391571 -49.5568984 48.78522157 -49.57421875 46.39648438 C-49.63199544 40.59370521 -49.77976124 34.79876891 -50 29 C-51.485 28.505 -51.485 28.505 -53 28 C-55.32579101 24.51131349 -55.41865457 23.10281481 -55 19 C-53.9375 16.625 -53.9375 16.625 -52 15 C-48.36462125 14.53731543 -45.93389023 14.59291964 -42.5625 16.0625 C-41 18 -41 18 -40.625 21.5 C-41 25 -41 25 -43 28 C-43.66 28 -44.32 28 -45 28 C-45 43.18 -45 58.36 -45 74 C-38.55931156 68.39459081 -38.55931156 68.39459081 -32.5 62.5 C-29.14400967 59.0980372 -25.67515168 55.93392984 -22.046875 52.828125 C-18.91523848 50.0311672 -16.00378205 47.02547362 -13.078125 44.015625 C-11 42 -11 42 -8.90820312 40.73413086 C-6.75519434 39.11912456 -6.75519434 39.11912456 -6.45410156 36.36450195 C-6.4331543 35.33284912 -6.41220703 34.30119629 -6.390625 33.23828125 C-6.34228516 31.56088867 -6.34228516 31.56088867 -6.29296875 29.84960938 C-6.27878906 28.68236328 -6.26460937 27.51511719 -6.25 26.3125 C-6.20552734 24.54422852 -6.20552734 24.54422852 -6.16015625 22.74023438 C-6.08938344 19.82675368 -6.03672275 16.91407664 -6 14 C-6.66 14 -7.32 14 -8 14 C-10.31056137 11.68943863 -10.96255612 10.25675801 -11.4375 7 C-11 4 -11 4 -9.4375 1.625 C-6.08716465 -0.6085569 -3.9518567 -0.49398209 0 0 Z " fill="#E7E7E6" transform="translate(763,91)"/>
<path d="M0 0 C0.85464844 -0.02578125 1.70929688 -0.0515625 2.58984375 -0.078125 C5.59275278 0.3203653 6.92355433 1.12570464 9.0625 3.25 C9.51050072 6.77000568 9.62232004 9.17418926 7.96484375 12.359375 C5.28914141 15.01859458 2.85604946 15.28836742 -0.8125 16.0625 C-20.73317797 20.81285254 -37.39925798 34.72790658 -48.2578125 51.8046875 C-52.39453665 58.62250094 -55.59176869 65.62109008 -57.9375 73.25 C-58.28554688 74.30445313 -58.63359375 75.35890625 -58.9921875 76.4453125 C-61.28669933 83.79779933 -62.58435603 90.9183188 -63.25439453 98.56494141 C-63.87396809 105.2756678 -63.87396809 105.2756678 -65.9375 108.25 C-68.9375 110.25 -68.9375 110.25 -72.5 110.0625 C-75.9375 109.25 -75.9375 109.25 -77.9375 106.25 C-80.52456244 78.81510527 -70.21870611 53.64790563 -53.5 32.375 C-43.78993845 21.01541837 -31.40629611 9.83178544 -16.9375 5.25 C-14.58089069 4.24002458 -12.25013762 3.18214249 -9.91796875 2.1171875 C-6.4967748 0.61914991 -3.70669668 0.06688776 0 0 Z " fill="#EEEEEC" transform="translate(523.9375,299.75)"/>
<path d="M0 0 C3.82468048 1.98316766 7.09067421 4.07527477 9 8 C9.58034871 12.98362941 9.32173049 16.5445334 7 21 C7.35172998 23.98970481 7.82711465 24.82711465 10 27 C12.72000357 27.24556371 15.34574257 27.37356486 18.0703125 27.4140625 C19.26465408 27.44311172 19.26465408 27.44311172 20.48312378 27.4727478 C23.03030634 27.53260474 25.57753395 27.57895279 28.125 27.625 C29.8502803 27.66317421 31.57554143 27.70222561 33.30078125 27.7421875 C37.53369876 27.83831109 41.76670549 27.92231908 46 28 C45.67 28.66 45.34 29.32 45 30 C44.34 30 43.68 30 43 30 C43 32.97 43 35.94 43 39 C38.05459976 39.13010171 33.11556376 39.18609766 28.16845703 39.17700195 C26.49052462 39.18392757 24.81254574 39.21020538 23.13525391 39.25708008 C8.38144643 39.64811309 8.38144643 39.64811309 3.77587891 35.5546875 C1.140625 32.57421875 1.140625 32.57421875 -0.99121094 29.59643555 C-3.60800859 26.214126 -6.16875517 25.23997163 -10.0859375 23.828125 C-13.64717297 22.28734557 -15.32676439 19.34647122 -17 16 C-17.54895595 10.29085808 -16.62637093 7.43223114 -13 3 C-9.45595278 -0.93783025 -4.95956605 -0.78354255 0 0 Z " fill="#EBEBEA" transform="translate(779,449)"/>
<path d="M0 0 C3.14847243 1.300456 4.61740061 2.5514352 6.8125 5.125 C8.49118858 9.18919342 8.92968895 12.67620852 8 17 C5.68127843 20.92286857 3.35266518 23.54911161 -1 25 C-5.15286777 25.39177998 -7.48969587 25.25515206 -11.25 23.375 C-15.13697012 20.01807126 -16.69814904 17.06983519 -17.4375 12 C-16.76022306 7.35581527 -14.38893417 4.54326019 -11.3125 1.125 C-7.61367749 -0.67442716 -4.03041366 -0.52633309 0 0 Z " fill="#ECEBEB" transform="translate(775,335)"/>
<path d="M0 0 C3.75624215 -0.71928041 5.49062085 -0.26576304 8.875 1.5 C11.10653089 4.12533046 11.38744784 4.78479929 11.5625 8.0625 C11 12 11 12 9.4375 14 C6.09763163 15.37020241 3.57400356 15.3898913 0 15 C-1.9375 13.625 -1.9375 13.625 -3 12 C-3 11.34 -3 10.68 -3 10 C-4.65769409 10.01571045 -4.65769409 10.01571045 -6.34887695 10.03173828 C-10.44698856 10.06792407 -14.54508603 10.09089529 -18.64331055 10.10986328 C-20.41742324 10.11992411 -22.19151935 10.13357422 -23.96557617 10.15087891 C-26.51485284 10.17512378 -29.06391037 10.18648218 -31.61328125 10.1953125 C-32.80405022 10.21079636 -32.80405022 10.21079636 -34.01887512 10.22659302 C-37.88223043 10.2273811 -39.70839446 10.19440369 -43 8 C-42.67 7.01 -42.34 6.02 -42 5 C-40.30472168 5.03927612 -40.30472168 5.03927612 -38.57519531 5.0793457 C-34.37845692 5.16990714 -30.18180469 5.22727031 -25.984375 5.2746582 C-24.16847201 5.299789 -22.35267004 5.33389961 -20.53710938 5.37719727 C-17.92552777 5.43791511 -15.31528406 5.46622281 -12.703125 5.48828125 C-11.48728729 5.52699089 -11.48728729 5.52699089 -10.24688721 5.56648254 C-7.65870726 5.62269286 -7.65870726 5.62269286 -4 5 C-1.61034378 2.6211366 -1.61034378 2.6211366 0 0 Z " fill="#F1F1F1" transform="translate(762,192)"/>
<path d="M0 0 C3.32274404 2.45594125 4.77618008 3.9256644 5.625 8 C4.77618008 12.0743356 3.32274404 13.54405875 0 16 C-3.61853729 16.6646293 -5.23101795 16.46543651 -8.375 14.5625 C-10.7638671 10.79544034 -10.80596676 7.34235152 -10 3 C-7.26521272 -0.47107617 -4.23306051 -0.69111192 0 0 Z " fill="#4D4D4C" transform="translate(722,316)"/>
<path d="M0 0 C2.9375 2 2.9375 2 5 5 C5.34505881 8.11147859 4.87082592 9.87527171 4 13 C1.62258756 15.19453456 -0.26632283 15.02853459 -3.5 15.375 C-7 15 -7 15 -9.4375 13.4375 C-11.61999672 10.03280512 -11.63734462 7.96569988 -11 4 C-7.70503051 0.22047618 -4.94820177 -0.92778783 0 0 Z " fill="#505150" transform="translate(747,524)"/>
<path d="M0 0 C2.375 0.9375 2.375 0.9375 4 3 C4.50786669 6.06431924 4.61329775 8.95008689 4 12 C2.71875 13.75 2.71875 13.75 1 15 C-2.09562931 15.39309578 -4.04336605 15.62338668 -7 15 C-9.5625 12.9375 -9.5625 12.9375 -11 10 C-11 6.1862249 -10.84985071 3.97575452 -8.3125 1.0625 C-5.2941394 -0.32431433 -3.29029921 -0.4112874 0 0 Z " fill="#484747" transform="translate(710,558)"/>
<path d="M0 0 C-0.33 0.66 -0.66 1.32 -1 2 C-2.3096875 1.97679688 -3.619375 1.95359375 -4.96875 1.9296875 C-24.66584888 1.68854327 -43.85617335 3.16988201 -63.24755859 6.67871094 C-64.66222412 6.93442871 -64.66222412 6.93442871 -66.10546875 7.1953125 C-66.93199951 7.35016113 -67.75853027 7.50500977 -68.61010742 7.66455078 C-71.10383892 8.014575 -73.48516786 8.05764498 -76 8 C-74 5 -74 5 -71.95068359 4.32397461 C-71.10844238 4.18483643 -70.26620117 4.04569824 -69.3984375 3.90234375 C-67.96854492 3.66112793 -67.96854492 3.66112793 -66.50976562 3.41503906 C-65.47529297 3.25745117 -64.44082031 3.09986328 -63.375 2.9375 C-62.30701172 2.76831055 -61.23902344 2.59912109 -60.13867188 2.42480469 C-40.40655297 -0.57489353 -19.88692613 -2.67708621 0 0 Z " fill="#2E2E2E" transform="translate(821,74)"/>
<path d="M0 0 C-0.33 0.99 -0.66 1.98 -1 3 C-3.52734375 3.95703125 -3.52734375 3.95703125 -6.9375 4.8125 C-12.80349216 6.36438148 -18.51336562 8.15087882 -24.25 10.125 C-39.8742118 15.3708611 -56.0900175 17.8873944 -72 12 C-71.34 11.34 -70.68 10.68 -70 10 C-68.14916992 10.34643555 -68.14916992 10.34643555 -66 11 C-46.14348483 13.52710937 -30.62877544 9.14784045 -12.02026367 2.64282227 C-11.03775635 2.30178467 -10.05524902 1.96074707 -9.04296875 1.609375 C-8.16664795 1.29967773 -7.29032715 0.98998047 -6.38745117 0.67089844 C-4 0 -4 0 0 0 Z " fill="#2B2B2B" transform="translate(625,611)"/>
<path d="M0 0 C2.4375 1.0625 2.4375 1.0625 4 3 C4.57491549 6.95254396 4.61372366 9.07941451 2.375 12.4375 C-0.71685231 14.47161336 -2.36367425 14.60605429 -6 14 C-8.375 12.4375 -8.375 12.4375 -10 10 C-10.42519574 6.53769185 -10.63902633 4.1652833 -8.9375 1.0625 C-5.87116726 -0.61903731 -3.42486249 -0.36051184 0 0 Z " fill="#504F4F" transform="translate(760,386)"/>
<path d="M0 0 C3.67803118 -0.57213818 5.56666266 -0.22608905 8.875 1.5 C11.10653089 4.12533046 11.38744784 4.78479929 11.5625 8.0625 C11 12 11 12 9.4375 14 C6.1089459 15.36556065 3.55853339 15.3953926 0 15 C-0.66 14.01 -1.32 13.02 -2 12 C-1.01 12 -0.02 12 1 12 C0.67 11.67 0.34 11.34 0 11 C-0.25 8.625 -0.25 8.625 0 6 C1.5 4.1875 1.5 4.1875 3 3 C1.35 3 -0.3 3 -2 3 C-1.34 2.01 -0.68 1.02 0 0 Z " fill="#D9D9D8" transform="translate(762,192)"/>
<path d="M0 0 C0.98355469 0.13470703 1.96710937 0.26941406 2.98046875 0.40820312 C10.19836555 1.42028852 10.19836555 1.42028852 13.625 2.5625 C13.625 3.2225 13.625 3.8825 13.625 4.5625 C12.73361328 4.47162109 12.73361328 4.47162109 11.82421875 4.37890625 C10.99535156 4.29511719 10.16648437 4.21132813 9.3125 4.125 C8.51199219 4.04378906 7.71148438 3.96257812 6.88671875 3.87890625 C5.81035156 3.77449219 4.73398437 3.67007812 3.625 3.5625 C2.85647705 3.47798584 2.0879541 3.39347168 1.29614258 3.30639648 C-6.17166361 2.53715989 -13.55984588 2.4452361 -21.0625 2.5 C-22.25294922 2.50451172 -23.44339844 2.50902344 -24.66992188 2.51367188 C-27.57166936 2.52532548 -30.47330626 2.54168441 -33.375 2.5625 C-33.705 1.9025 -34.035 1.2425 -34.375 0.5625 C-32.2304766 0.22084051 -30.08428784 -0.11037042 -27.9375 -0.4375 C-26.74253906 -0.623125 -25.54757812 -0.80875 -24.31640625 -1 C-16.0174255 -1.92119509 -8.24229211 -1.18932403 0 0 Z " fill="#2B2B2B" transform="translate(738.375,285.4375)"/>
<path d="M0 0 C3.46093134 -0.19966912 6.2014503 -0.32761013 9.4375 1 C11.46098457 3.59006025 11.62026024 5.81736393 11.453125 9.05859375 C11 11 11 11 8.8125 13.5 C5.86008015 15.07462392 4.28423071 15.37534065 1 15 C0.67 14.34 0.34 13.68 0 13 C0.66 12.67 1.32 12.34 2 12 C1.67 9.69 1.34 7.38 1 5 C2.65 4.67 4.3 4.34 6 4 C6 3.01 6 2.02 6 1 C3.69 1.33 1.38 1.66 -1 2 C-0.67 1.34 -0.34 0.68 0 0 Z " fill="#D7D6D5" transform="translate(773,154)"/>
<path d="M0 0 C1.8125 1.125 1.8125 1.125 3 3 C3.39769128 6.18153026 3.55198782 8.12844028 1.8125 10.875 C-0.65507108 12.40659584 -2.14519831 12.42822025 -5 12 C-6.8125 10.875 -6.8125 10.875 -8 9 C-8.39769128 5.81846974 -8.55198782 3.87155972 -6.8125 1.125 C-4.34492892 -0.40659584 -2.85480169 -0.42822025 0 0 Z " fill="#4D4C4C" transform="translate(759,490)"/>
<path d="M0 0 C2.9375 0.875 2.9375 0.875 4.9375 3.875 C4.72732001 6.67739987 4.24793413 8.40934881 2.6875 10.75 C0.9375 11.875 0.9375 11.875 -1.625 11.6875 C-4.0625 10.875 -4.0625 10.875 -6.0625 8.875 C-6.39552312 5.7445827 -6.53921956 3.69601702 -4.9375 0.9375 C-3.0625 -0.125 -3.0625 -0.125 0 0 Z " fill="#585756" transform="translate(776.0625,456.125)"/>
<path d="M0 0 C1.8125 1.1875 1.8125 1.1875 3 3 C3.4334014 5.88934264 3.42525784 7.35092224 1.8125 9.8125 C-0.64907776 11.42525784 -2.11065736 11.4334014 -5 11 C-6.8125 9.8125 -6.8125 9.8125 -8 8 C-8.4334014 5.11065736 -8.42525784 3.64907776 -6.8125 1.1875 C-4.35092224 -0.42525784 -2.88934264 -0.4334014 0 0 Z " fill="#555454" transform="translate(773,342)"/>
<path d="M0 0 C2.5625 0.3125 2.5625 0.3125 4.375 1.4375 C6.09099028 4.14695834 5.896228 6.17545684 5.5625 9.3125 C3.5625 11.3125 3.5625 11.3125 0.5625 11.5625 C-2.4375 11.3125 -2.4375 11.3125 -4.4375 9.3125 C-4.6875 5.8125 -4.6875 5.8125 -4.4375 2.3125 C-2.4375 0.3125 -2.4375 0.3125 0 0 Z " fill="#515050" transform="translate(711.4375,455.6875)"/>
<path d="M0 0 C0.495 1.485 0.495 1.485 1 3 C-22.03613763 26.64419812 -22.03613763 26.64419812 -34 33 C-34.99 33 -35.98 33 -37 33 C-37 32.34 -37 31.68 -37 31 C-35.26953125 29.87890625 -35.26953125 29.87890625 -32.8125 28.5625 C-25.83981832 24.52308526 -20.02205512 19.30254679 -14 14 C-13.07832031 13.20207031 -12.15664063 12.40414062 -11.20703125 11.58203125 C-7.06010336 8.23142233 -7.06010336 8.23142233 -4 4 C-3.34 4 -2.68 4 -2 4 C-1.34 2.68 -0.68 1.36 0 0 Z " fill="#353535" transform="translate(773,561)"/>
<path d="M0 0 C6.45328515 -0.54288152 11.06582083 1.32899058 16.9375 3.875 C22.91840978 6.42601352 28.6399713 8.59976193 35 10 C34.67 10.99 34.34 11.98 34 13 C23.9505688 10.36763744 14.57451131 6.99413463 5 3 C3.33455966 2.33027566 1.66840106 1.66231422 0 1 C0 0.67 0 0.34 0 0 Z " fill="#292828" transform="translate(587,278)"/>
<path d="M0 0 C0 0.33 0 0.66 0 1 C-1.65 1 -3.3 1 -5 1 C-5 1.66 -5 2.32 -5 3 C-3.68 3.33 -2.36 3.66 -1 4 C-0.61781233 5.65614657 -0.28604898 7.32457024 0 9 C-1 10 -1 10 -3.4375 10.125 C-6 10 -6 10 -8 9 C-8.66 9.66 -9.32 10.32 -10 11 C-11 10 -11 10 -11.3125 7.1875 C-11 4 -11 4 -9.4375 1.625 C-6.18317497 -0.54455002 -3.82869586 -0.29451507 0 0 Z " fill="#D3D2D0" transform="translate(763,91)"/>
<path d="M0 0 C5.62030794 0.50961341 9.77144288 2.02157891 14.75 4.625 C15.78737305 5.15480469 15.78737305 5.15480469 16.84570312 5.6953125 C22.79690569 8.78398111 28.44861137 12.23634669 34 16 C32.3125 16.69140625 32.3125 16.69140625 30 17 C27.625 15.77734375 27.625 15.77734375 25 13.9375 C17.2419519 8.75163897 9.166591 4.08331614 0 2 C0 1.34 0 0.68 0 0 Z " fill="#2E2D2D" transform="translate(755,290)"/>
<path d="M0 0 C-0.495 0.391875 -0.99 0.78375 -1.5 1.1875 C-3.23551297 2.94032238 -3.23551297 2.94032238 -3.25 5.5625 C-3.14460969 8.00546594 -3.14460969 8.00546594 -2 10 C-4.475 9.505 -4.475 9.505 -7 9 C-7 8.34 -7 7.68 -7 7 C-19.21 7 -31.42 7 -44 7 C-44 6.67 -44 6.34 -44 6 C-31.79 6 -19.58 6 -7 6 C-7 4.02 -7 2.04 -7 0 C-3.86650268 -1.04449911 -3.01031744 -0.93423645 0 0 Z " fill="#E5E5E4" transform="translate(766,195)"/>
<path d="M0 0 C0.33 0.99 0.66 1.98 1 3 C-2.30819752 4.61314788 -5.6222909 6.21381768 -8.9375 7.8125 C-9.86369141 8.26431641 -10.78988281 8.71613281 -11.74414062 9.18164062 C-17.40810658 11.904319 -22.99410899 14.14587365 -29 16 C-29 15.01 -29 14.02 -29 13 C-28.10861328 12.62246582 -28.10861328 12.62246582 -27.19921875 12.23730469 C-24.46502045 11.07750284 -21.73250796 9.91377842 -19 8.75 C-18.06542969 8.35425781 -17.13085938 7.95851562 -16.16796875 7.55078125 C-10.67617314 5.20812718 -5.31009432 2.73019 0 0 Z " fill="#2C2C2C" transform="translate(748,231)"/>
<path d="M0 0 C0.66 0 1.32 0 2 0 C3.40027356 22.59489033 3.40027356 22.59489033 2 33 C0.50463867 31.9284668 0.50463867 31.9284668 -1 30 C-1.2487793 26.90551758 -1.2487793 26.90551758 -1.07421875 23.14453125 C-1.04777786 22.48289474 -1.02133698 21.82125824 -0.99409485 21.13957214 C-0.90643127 19.02961927 -0.79725639 16.92140776 -0.6875 14.8125 C-0.62423028 13.38092146 -0.56236456 11.94928013 -0.50195312 10.51757812 C-0.35091097 7.01084421 -0.18056436 3.5053518 0 0 Z " fill="#333333" transform="translate(834,397)"/>
<path d="M0 0 C0 0.66 0 1.32 0 2 C-0.71542969 2.17015625 -1.43085937 2.3403125 -2.16796875 2.515625 C-8.96660272 4.16910907 -15.62806568 6.07599217 -22.28515625 8.23046875 C-25 9 -25 9 -28 9 C-28 8.34 -28 7.68 -28 7 C-24.60583457 5.8491847 -21.20939392 4.7052339 -17.8125 3.5625 C-16.85279297 3.23701172 -15.89308594 2.91152344 -14.90429688 2.57617188 C-13.97294922 2.26357422 -13.04160156 1.95097656 -12.08203125 1.62890625 C-11.22843018 1.34088135 -10.3748291 1.05285645 -9.49536133 0.75610352 C-2.64136461 -1.3206823 -2.64136461 -1.3206823 0 0 Z " fill="#323030" transform="translate(703,287)"/>
<path d="M0 0 C0.33 0.99 0.66 1.98 1 3 C0.46109131 3.25168945 -0.07781738 3.50337891 -0.63305664 3.76269531 C-3.11097511 4.92208592 -5.58673926 6.08600932 -8.0625 7.25 C-8.91005859 7.64574219 -9.75761719 8.04148437 -10.63085938 8.44921875 C-14.52118611 10.28172787 -18.31105374 12.13898792 -21.99609375 14.359375 C-23.48302734 15.17148437 -23.48302734 15.17148437 -25 16 C-25.66 15.67 -26.32 15.34 -27 15 C-24.79009599 12.58135852 -22.62497695 11.10207355 -19.7265625 9.58984375 C-18.9015625 9.15736328 -18.0765625 8.72488281 -17.2265625 8.27929688 C-15.93878906 7.61510742 -15.93878906 7.61510742 -14.625 6.9375 C-13.34882813 6.26750977 -13.34882813 6.26750977 -12.046875 5.58398438 C-8.08487268 3.51967008 -4.17044713 1.61387759 0 0 Z " fill="#2F2F2F" transform="translate(501,276)"/>
<path d="M0 0 C0.66 0.33 1.32 0.66 2 1 C-1.0428008 8.43795752 -9.28788045 13.93740132 -16 18 C-14.33536962 13.71357676 -11.20924163 10.91382783 -8 7.75 C-7.4534375 7.19570313 -6.906875 6.64140625 -6.34375 6.0703125 C-2.2533867 2 -2.2533867 2 0 2 C0 1.34 0 0.68 0 0 Z M-17 18 C-17 18.99 -17 19.98 -17 21 C-17.99 21.66 -18.98 22.32 -20 23 C-18.125 19.125 -18.125 19.125 -17 18 Z " fill="#343435" transform="translate(464,297)"/>
<path d="M0 0 C2 1 2 1 2.6328125 2.85546875 C3.5740148 7.31497489 4.23530026 11.41164496 4 16 C4.598125 15.505 5.19625 15.01 5.8125 14.5 C8 13 8 13 11 13 C11 15 11 15 9.5 16.625 C9.005 17.07875 8.51 17.5325 8 18 C8.66 18.33 9.32 18.66 10 19 C10 19.66 10 20.32 10 21 C7.69 20.67 5.38 20.34 3 20 C2.49395076 17.60530271 1.99500483 15.20948283 1.5 12.8125 C1.28537109 11.80219727 1.28537109 11.80219727 1.06640625 10.77148438 C0.31930158 7.12490207 -0.17352282 3.72351043 0 0 Z " fill="#545353" transform="translate(638,231)"/>
<path d="M0 0 C8.66508753 -0.55048791 16.60352122 1.11918875 25 3 C25 3.66 25 4.32 25 5 C24.40574219 4.93941406 23.81148437 4.87882812 23.19921875 4.81640625 C22.37035156 4.73261719 21.54148437 4.64882813 20.6875 4.5625 C19.78128906 4.46839844 18.87507812 4.37429688 17.94140625 4.27734375 C15.9728052 4.09172532 14.00091595 3.93829573 12.02734375 3.81640625 C11.06957031 3.75324219 10.11179687 3.69007813 9.125 3.625 C7.79855469 3.55152344 7.79855469 3.55152344 6.4453125 3.4765625 C3.61550908 2.92506727 2.1543401 1.87377488 0 0 Z " fill="#2B2A2B" transform="translate(727,285)"/>
<path d="M0 0 C4.24046994 0.64201508 7.69647574 2.10528225 11.5625 3.9375 C12.67753906 4.46214844 13.79257812 4.98679687 14.94140625 5.52734375 C17.305071 6.66540456 19.65943458 7.81541066 22 9 C22 9.33 22 9.66 22 10 C13.71602066 9.83432041 7.12502726 5.83270427 0 2 C0 1.34 0 0.68 0 0 Z " fill="#2A2929" transform="translate(531,612)"/>
<path d="M0 0 C0.66 0.33 1.32 0.66 2 1 C-0.88939581 3.96381559 -3.78875386 6.91748387 -6.69750977 9.86230469 C-7.68464193 10.86447917 -8.6690593 11.86933553 -9.65063477 12.87695312 C-11.06593722 14.32883967 -12.4908767 15.77064889 -13.91796875 17.2109375 C-14.77156982 18.08024902 -15.6251709 18.94956055 -16.50463867 19.84521484 C-18.96375759 21.96870409 -20.92949984 23.01416988 -24 24 C-19.88865286 18.91491275 -15.44889131 14.61174961 -10.546875 10.2890625 C-6.88747802 7.00009528 -3.43467865 3.52102532 0 0 Z " fill="#D1D0D0" transform="translate(752,133)"/>
<path d="M0 0 C0.66 0.33 1.32 0.66 2 1 C-0.89496973 4.08569715 -3.87525336 6.40983606 -7.4375 8.6875 C-8.36433594 9.28949219 -9.29117188 9.89148438 -10.24609375 10.51171875 C-12.91062333 11.95169857 -15.01876694 12.59420603 -18 13 C-14.67595538 9.36693615 -10.98946746 6.82160752 -6.875 4.1875 C-6.24207031 3.76791016 -5.60914063 3.34832031 -4.95703125 2.91601562 C-3.34557286 1.87763426 -1.67608969 0.93046082 0 0 Z " fill="#282828" transform="translate(709,93)"/>
<path d="M0 0 C0.66 0.33 1.32 0.66 2 1 C-4.93 7.93 -11.86 14.86 -19 22 C-19.99 21.67 -20.98 21.34 -22 21 C-21.24976563 20.32195312 -20.49953125 19.64390625 -19.7265625 18.9453125 C-12.96206703 12.80374578 -6.39823899 6.52563756 0 0 Z " fill="#5A5B5B" transform="translate(700,195)"/>
<path d="M0 0 C0.66 0 1.32 0 2 0 C2 0.99 2 1.98 2 3 C-3.61 5.64 -9.22 8.28 -15 11 C-15.66 10.34 -16.32 9.68 -17 9 C-15.85660156 8.43410156 -14.71320312 7.86820313 -13.53515625 7.28515625 C-12.04421862 6.54437592 -10.55333604 5.80348478 -9.0625 5.0625 C-8.30775391 4.68931641 -7.55300781 4.31613281 -6.77539062 3.93164062 C-6.05673828 3.57392578 -5.33808594 3.21621094 -4.59765625 2.84765625 C-3.93258057 2.51773682 -3.26750488 2.18781738 -2.58227539 1.84790039 C-1.00380637 1.10022992 -1.00380637 1.10022992 0 0 Z " fill="#2E2F2F" transform="translate(733,594)"/>
<path d="M0 0 C-0.33 0.99 -0.66 1.98 -1 3 C-3.4883719 3.9145806 -5.81511755 4.62192475 -8.375 5.25 C-9.06078125 5.435625 -9.7465625 5.62125 -10.453125 5.8125 C-13.81556721 6.67600656 -15.64402204 7.11865932 -19 6 C-18.67 5.34 -18.34 4.68 -18 4 C-15.53792482 3.19497781 -13.13174861 2.50401685 -10.625 1.875 C-9.93921875 1.69324219 -9.2534375 1.51148438 -8.546875 1.32421875 C-5.61869471 0.56653786 -3.03665271 0 0 0 Z " fill="#282828" transform="translate(522,271)"/>
<path d="M0 0 C2.23010254 0.6216524 4.45904696 1.2474603 6.6875 1.875 C7.92886719 2.22304688 9.17023437 2.57109375 10.44921875 2.9296875 C13.38816854 3.81557556 16.17771887 4.80201451 19 6 C18.34 6.66 17.68 7.32 17 8 C5.47835991 4.92482916 5.47835991 4.92482916 0 3 C0 2.01 0 1.02 0 0 Z " fill="#2C2C2C" transform="translate(666,601)"/>
<path d="M0 0 C-2.55573961 3.0171926 -5.38380793 4.2432533 -9 5.75 C-10.051875 6.19859375 -11.10375 6.6471875 -12.1875 7.109375 C-15 8 -15 8 -18 7 C-16.5036589 4.0073178 -14.29309593 3.64419367 -11.25 2.375 C-10.20328125 1.92898438 -9.1565625 1.48296875 -8.078125 1.0234375 C-5.1450186 0.04821684 -3.05675237 -0.2151048 0 0 Z " fill="#272627" transform="translate(673,297)"/>
<path d="M0 0 C11.88 0 23.76 0 36 0 C35.01 0.99 34.02 1.98 33 3 C32.34 2.67 31.68 2.34 31 2 C28.67726841 1.84479443 26.35040687 1.74980833 24.0234375 1.68359375 C23.33819 1.66281265 22.6529425 1.64203156 21.94692993 1.62062073 C19.75638931 1.55519815 17.56572811 1.49627446 15.375 1.4375 C13.8906125 1.39430782 12.40623722 1.3506933 10.921875 1.30664062 C7.28137916 1.19952447 3.64074749 1.09823638 0 1 C0 0.67 0 0.34 0 0 Z " fill="#A9AAA9" transform="translate(789,477)"/>
<path d="M0 0 C0.33 0.99 0.66 1.98 1 3 C-0.1196986 4.00593243 -1.2459412 5.0045849 -2.375 6 C-3.31472656 6.8353125 -3.31472656 6.8353125 -4.2734375 7.6875 C-6 9 -6 9 -8 9 C-8 9.66 -8 10.32 -8 11 C-9.8125 12.6875 -9.8125 12.6875 -12 14 C-12.99 13.67 -13.98 13.34 -15 13 C-13.54712339 11.66072279 -12.08752741 10.32873153 -10.625 9 C-9.81289063 8.2575 -9.00078125 7.515 -8.1640625 6.75 C-6 5 -6 5 -4 5 C-4 4.34 -4 3.68 -4 3 C-2 1.375 -2 1.375 0 0 Z " fill="#2F3030" transform="translate(776,210)"/>
<path d="M0 0 C8.72630608 -0.09744014 17.33003296 -0.16711095 26 1 C25.67 1.66 25.34 2.32 25 3 C21.04 3 17.08 3 13 3 C13 2.67 13 2.34 13 2 C8.71 1.67 4.42 1.34 0 1 C0 0.67 0 0.34 0 0 Z " fill="#1E1E1E" transform="translate(795,73)"/>
<path d="M0 0 C5.61 0 11.22 0 17 0 C17 0.66 17 1.32 17 2 C15.10507254 2.19644384 13.20899097 2.38177288 11.3125 2.5625 C9.72888672 2.71912109 9.72888672 2.71912109 8.11328125 2.87890625 C5.18573914 2.99277552 2.82868856 2.70848415 0 2 C0 1.34 0 0.68 0 0 Z " fill="#2F2F2F" transform="translate(686,607)"/>
<path d="M0 0 C0.66 0.33 1.32 0.66 2 1 C-0.11905463 3.17277714 -2.24472878 5.33826908 -4.375 7.5 C-4.97828125 8.12003906 -5.5815625 8.74007813 -6.203125 9.37890625 C-6.78320312 9.96542969 -7.36328125 10.55195313 -7.9609375 11.15625 C-8.49509277 11.70087891 -9.02924805 12.24550781 -9.57958984 12.80664062 C-11 14 -11 14 -13 14 C-13 14.66 -13 15.32 -13 16 C-13.66 15.67 -14.32 15.34 -15 15 C-10.39863498 9.46398272 -5.53601728 4.60136502 0 0 Z " fill="#D6D5D4" transform="translate(486,317)"/>
<path d="M0 0 C2.125 0.375 2.125 0.375 4 1 C4.625 2.875 4.625 2.875 5 5 C4.34 5.66 3.68 6.32 3 7 C0.875 6.625 0.875 6.625 -1 6 C-1.625 4.125 -1.625 4.125 -2 2 C-1.34 1.34 -0.68 0.68 0 0 Z " fill="#636361" transform="translate(731,218)"/>
<path d="M0 0 C1.65 0 3.3 0 5 0 C5.38218767 1.65614657 5.71395102 3.32457024 6 5 C5 6 5 6 2.4375 6.0625 C1.2309375 6.0315625 1.2309375 6.0315625 0 6 C0 4.02 0 2.04 0 0 Z " fill="#565553" transform="translate(757,95)"/>
<path d="M0 0 C0.33 0 0.66 0 1 0 C1.05399736 1.45792884 1.09279177 2.91642712 1.125 4.375 C1.14820313 5.18710937 1.17140625 5.99921875 1.1953125 6.8359375 C1 9 1 9 -1 11 C-4.625 11.125 -4.625 11.125 -8 11 C-8 10.01 -8 9.02 -8 8 C-5.36 8 -2.72 8 0 8 C0 5.36 0 2.72 0 0 Z " fill="#242323" transform="translate(636,602)"/>
<path d="M0 0 C1.65 0 3.3 0 5 0 C5.33 1.65 5.66 3.3 6 5 C4.34385343 5.38218767 2.67542976 5.71395102 1 6 C0 5 0 5 -0.0625 2.4375 C-0.041875 1.633125 -0.02125 0.82875 0 0 Z " fill="#5A5959" transform="translate(763,197)"/>
<path d="M0 0 C1.65 0.33 3.3 0.66 5 1 C4.67 2.65 4.34 4.3 4 6 C2.35 5.67 0.7 5.34 -1 5 C-0.67 3.35 -0.34 1.7 0 0 Z " fill="#4E4E4C" transform="translate(775,158)"/>
<path d="M0 0 C1.65 0.33 3.3 0.66 5 1 C4.67 2.65 4.34 4.3 4 6 C2.35 5.67 0.7 5.34 -1 5 C-0.67 3.35 -0.34 1.7 0 0 Z " fill="#545452" transform="translate(713,110)"/>
<path d="M0 0 C0.33 0.99 0.66 1.98 1 3 C-0.43554025 3.50559908 -1.8735202 4.0042749 -3.3125 4.5 C-4.51326172 4.91765625 -4.51326172 4.91765625 -5.73828125 5.34375 C-8 6 -8 6 -11 6 C-11 5.34 -11 4.68 -11 4 C-7.37 2.68 -3.74 1.36 0 0 Z " fill="#2C2A2A" transform="translate(686,290)"/>
<path d="M0 0 C2 1 2 1 3.0703125 3.94140625 C3.41835938 5.13636719 3.76640625 6.33132812 4.125 7.5625 C4.47820313 8.76003906 4.83140625 9.95757812 5.1953125 11.19140625 C5.46085938 12.11824219 5.72640625 13.04507813 6 14 C5.01 14.495 5.01 14.495 4 15 C3.32243118 13.44219668 2.65840543 11.87849904 2 10.3125 C1.62875 9.44238281 1.2575 8.57226562 0.875 7.67578125 C-0.01870488 4.9427998 -0.16449676 2.85299066 0 0 Z " fill="#4A4949" transform="translate(628,199)"/>
<path d="M0 0 C3.63 0 7.26 0 11 0 C11 0.99 11 1.98 11 3 C9.54176788 3.0270043 8.08339325 3.04639787 6.625 3.0625 C5.81289063 3.07410156 5.00078125 3.08570313 4.1640625 3.09765625 C2 3 2 3 0 2 C0 1.34 0 0.68 0 0 Z " fill="#2D2B2B" transform="translate(623,289)"/>
<path d="M0 0 C-2.1755306 2.1755306 -3.55973892 2.71879553 -6.4375 3.6875 C-7.61119141 4.09548828 -7.61119141 4.09548828 -8.80859375 4.51171875 C-11 5 -11 5 -14 4 C-13 2 -13 2 -10.375 0.875 C-6.78189212 -0.05654649 -3.69584376 -0.14783375 0 0 Z " fill="#2D2C2C" transform="translate(743,82)"/>
<path d="M0 0 C7.48291572 6.15034169 7.48291572 6.15034169 10 10 C7 10 7 10 5.17578125 8.57421875 C4.56089844 7.95160156 3.94601562 7.32898438 3.3125 6.6875 C2.37857422 5.76517578 2.37857422 5.76517578 1.42578125 4.82421875 C0 3 0 3 0 0 Z " fill="#2F2F2F" transform="translate(797,314)"/>
<path d="M0 0 C1.2065625 0.0309375 1.2065625 0.0309375 2.4375 0.0625 C2.4375 1.7125 2.4375 3.3625 2.4375 5.0625 C0.7875 5.0625 -0.8625 5.0625 -2.5625 5.0625 C-3.125 3.125 -3.125 3.125 -3.5625 1.0625 C-2.5625 0.0625 -2.5625 0.0625 0 0 Z " fill="#504D4D" transform="translate(684.5625,125.9375)"/>
<path d="M0 0 C0.33 0.66 0.66 1.32 1 2 C-1.31 4.97 -3.62 7.94 -6 11 C-6.66 10.34 -7.32 9.68 -8 9 C-7.23587913 7.87043002 -6.46340197 6.74651022 -5.6875 5.625 C-5.25824219 4.99851562 -4.82898438 4.37203125 -4.38671875 3.7265625 C-3 2 -3 2 0 0 Z " fill="#313030" transform="translate(783,550)"/>
<path d="M0 0 C3.63 0.66 7.26 1.32 11 2 C10.67 2.99 10.34 3.98 10 5 C6.37 4.01 2.74 3.02 -1 2 C-0.67 1.34 -0.34 0.68 0 0 Z " fill="#303030" transform="translate(611,286)"/>
<path d="M0 0 C5.94 0.99 5.94 0.99 12 2 C12 2.99 12 3.98 12 5 C7.71 4.01 3.42 3.02 -1 2 C-0.67 1.34 -0.34 0.68 0 0 Z " fill="#282828" transform="translate(554,621)"/>
<path d="M0 0 C2.63886669 3.18483911 5.14494105 6.2898821 7 10 C6.67 10.99 6.34 11.98 6 13 C2.95950199 9.35140239 1.03481238 5.2555467 -1 1 C-0.67 0.67 -0.34 0.34 0 0 Z " fill="#484847" transform="translate(605,203)"/>
<path d="M0 0 C0 0.33 0 0.66 0 1 C-1.8253125 1.0928125 -1.8253125 1.0928125 -3.6875 1.1875 C-8.18745495 1.71315845 -10.02623841 3.58892052 -13 7 C-13.66 7 -14.32 7 -15 7 C-11.93033106 -0.4183666 -7.26649335 -0.41922077 0 0 Z " fill="#CACBCA" transform="translate(760,483)"/>
<path d="M0 0 C2.97 0 5.94 0 9 0 C9 0.66 9 1.32 9 2 C9.99 2.33 10.98 2.66 12 3 C8.37 3 4.74 3 1 3 C0.67 2.01 0.34 1.02 0 0 Z " fill="#181818" transform="translate(718,284)"/>
<path d="M0 0 C-1.5830577 4.2742558 -4.50568404 6.26531794 -8 9 C-8 6 -8 6 -6.7578125 4.39453125 C-5.94957031 3.61142578 -5.94957031 3.61142578 -5.125 2.8125 C-4.59132813 2.28269531 -4.05765625 1.75289063 -3.5078125 1.20703125 C-2 0 -2 0 0 0 Z " fill="#343434" transform="translate(683,114)"/>
<path d="M0 0 C3 1 3 1 4.75 3.8125 C6.05483179 7.13982105 6.02866653 7.79584277 5 11 C4.16151196 9.54462432 3.32936066 8.08559627 2.5 6.625 C1.80390625 5.40683594 1.80390625 5.40683594 1.09375 4.1640625 C0 2 0 2 0 0 Z " fill="#2E2E2E" transform="translate(815,338)"/>
<path d="M0 0 C0.66 0 1.32 0 2 0 C0.6062718 4.43458973 -1.60582235 6.87378374 -5 10 C-3.85569823 6.12697862 -2.76679902 2.99736561 0 0 Z " fill="#353636" transform="translate(441,323)"/>
<path d="M0 0 C0.33 0 0.66 0 1 0 C0.88601335 1.62580966 0.75844341 3.25067157 0.625 4.875 C0.52058594 6.23238281 0.52058594 6.23238281 0.4140625 7.6171875 C0 10 0 10 -2 12 C-2.28571429 3.42857143 -2.28571429 3.42857143 0 0 Z " fill="#313031" transform="translate(422,366)"/>
<path d="M0 0 C0.33 0.99 0.66 1.98 1 3 C-4.625 6 -4.625 6 -8 6 C-8 5.34 -8 4.68 -8 4 C-5.36 2.68 -2.72 1.36 0 0 Z " fill="#333333" transform="translate(748,231)"/>
<path d="M0 0 C0 0.66 0 1.32 0 2 C-2.97 2.66 -5.94 3.32 -9 4 C-8.67 3.01 -8.34 2.02 -8 1 C-2.59770115 -1.29885057 -2.59770115 -1.29885057 0 0 Z " fill="#383738" transform="translate(730,86)"/>
<path d="M0 0 C6.625 -0.25 6.625 -0.25 10 2 C6.7 2.33 3.4 2.66 0 3 C0 2.01 0 1.02 0 0 Z " fill="#323030" transform="translate(764,76)"/>
<path d="M0 0 C0.66 0.66 1.32 1.32 2 2 C-3.625 6 -3.625 6 -7 6 C-7 5.34 -7 4.68 -7 4 C-4.69 2.68 -2.38 1.36 0 0 Z " fill="#2E2E2E" transform="translate(743,588)"/>
<path d="M0 0 C-2.52956528 3.0916909 -5.22454612 3.90931332 -9 5 C-9.66 4.34 -10.32 3.68 -11 3 C-7.14243493 0.84694043 -4.44870215 -0.39253254 0 0 Z " fill="#2F2F2F" transform="translate(673,297)"/>
<path d="M0 0 C0 0.66 0 1.32 0 2 C-2.97 2.66 -5.94 3.32 -9 4 C-8.67 3.01 -8.34 2.02 -8 1 C-5.17884816 -0.07009208 -3.09455459 0 0 0 Z " fill="#313131" transform="translate(512,274)"/>
<path d="M0 0 C1.32 0.66 2.64 1.32 4 2 C3.01 2.495 3.01 2.495 2 3 C2 4.65 2 6.3 2 8 C1.67 6.68 1.34 5.36 1 4 C-0.32 4 -1.64 4 -3 4 C-3 3.34 -3 2.68 -3 2 C-2.01 2 -1.02 2 0 2 C0 1.34 0 0.68 0 0 Z " fill="#D7D7D7" transform="translate(686,122)"/>
<path d="M0 0 C3.55780196 0.60990891 6.6828589 1.5783681 10 3 C10 3.33 10 3.66 10 4 C7.03 3.67 4.06 3.34 1 3 C0.67 2.01 0.34 1.02 0 0 Z " fill="#2D2D2D" transform="translate(654,597)"/>
<path d="M0 0 C-0.78375 0.556875 -1.5675 1.11375 -2.375 1.6875 C-5.08704858 4.07668565 -5.96133543 5.60073413 -7 9 C-7.33 9 -7.66 9 -8 9 C-8.36190476 3.57142857 -8.36190476 3.57142857 -6.8125 1.125 C-4.43963721 -0.34781139 -2.74086056 -0.22223194 0 0 Z " fill="#6D6B6A" transform="translate(759,490)"/>
<path d="M0 0 C6.625 0.75 6.625 0.75 10 3 C6.06329512 4.31223496 3.87511856 3.24296256 0 2 C0 1.34 0 0.68 0 0 Z " fill="#292828" transform="translate(755,290)"/>
<path d="M0 0 C2.97 0 5.94 0 9 0 C9 0.99 9 1.98 9 3 C5.85375007 3.26218749 4.38162983 3.24754367 1.6875 1.5 C1.130625 1.005 0.57375 0.51 0 0 Z " fill="#323232" transform="translate(727,285)"/>
<path d="M0 0 C1.27875 -0.061875 2.5575 -0.12375 3.875 -0.1875 C4.95394531 -0.23970703 4.95394531 -0.23970703 6.0546875 -0.29296875 C6.69664062 -0.19628906 7.33859375 -0.09960938 8 0 C8.66 0.99 9.32 1.98 10 3 C8.5199159 2.88637738 7.04089926 2.75877092 5.5625 2.625 C4.73878906 2.55539063 3.91507813 2.48578125 3.06640625 2.4140625 C2.38449219 2.27742187 1.70257812 2.14078125 1 2 C0.67 1.34 0.34 0.68 0 0 Z " fill="#252525" transform="translate(669,251)"/>
<path d="M0 0 C0.33 0.66 0.66 1.32 1 2 C-0.98 4.31 -2.96 6.62 -5 9 C-5.66 8.67 -6.32 8.34 -7 8 C-4.69 5.36 -2.38 2.72 0 0 Z " fill="#333333" transform="translate(789,196)"/>
<path d="M0 0 C3.375 -0.125 3.375 -0.125 7 0 C7.66 0.66 8.32 1.32 9 2 C5.52674819 3.1577506 2.63932552 3.06866652 -1 3 C-0.67 2.01 -0.34 1.02 0 0 Z " fill="#2F2F2F" transform="translate(596,158)"/>
<path d="M0 0 C0.66 0.66 1.32 1.32 2 2 C-0.97 3.65 -3.94 5.3 -7 7 C-4.91100178 2.82200357 -3.94455388 2.07608099 0 0 Z " fill="#2E2D2E" transform="translate(758,225)"/>
<path d="M0 0 C0.66 0.66 1.32 1.32 2 2 C-0.25 4.0625 -0.25 4.0625 -3 6 C-4.32 5.67 -5.64 5.34 -7 5 C-4.69 3.35 -2.38 1.7 0 0 Z " fill="#323232" transform="translate(698,100)"/>
<path d="M0 0 C0.99 0.66 1.98 1.32 3 2 C0.42786866 3.61949011 -0.67669159 4.04408751 -3.75 3.625 C-4.4925 3.41875 -5.235 3.2125 -6 3 C-3 1 -3 1 0 0 Z " fill="#333333" transform="translate(611,614)"/>
<path d="M0 0 C3.465 1.98 3.465 1.98 7 4 C6.67 4.99 6.34 5.98 6 7 C3.69 5.35 1.38 3.7 -1 2 C-0.67 1.34 -0.34 0.68 0 0 Z " fill="#373737" transform="translate(518,603)"/>
<path d="M0 0 C0.99 0.33 1.98 0.66 3 1 C3 1.66 3 2.32 3 3 C3.66 3 4.32 3 5 3 C5.33 4.32 5.66 5.64 6 7 C4.68 6.34 3.36 5.68 2 5 C2 4.34 2 3.68 2 3 C1.34 3 0.68 3 0 3 C0 2.01 0 1.02 0 0 Z " fill="#333433" transform="translate(485,573)"/>
<path d="M0 0 C0.66 0.33 1.32 0.66 2 1 C1.0479279 2.00596297 0.08812654 3.00461563 -0.875 4 C-1.40867187 4.556875 -1.94234375 5.11375 -2.4921875 5.6875 C-4 7 -4 7 -6 7 C-4.60667426 3.63279613 -3.0210714 2.0140476 0 0 Z " fill="#CECDCC" transform="translate(699,550)"/>
<path d="M0 0 C3.08089673 2.77280706 4.68775452 5.06326356 6 9 C3 8 3 8 1.3125 5.625 C0 3 0 3 0 0 Z " fill="#393231" transform="translate(457,536)"/>
<path d="M0 0 C4.29 0 8.58 0 13 0 C11.515 1.485 11.515 1.485 10 3 C7.51953125 2.85546875 7.51953125 2.85546875 4.8125 2.1875 C3.91144531 1.97480469 3.01039063 1.76210938 2.08203125 1.54296875 C1.39496094 1.36378906 0.70789063 1.18460937 0 1 C0 0.67 0 0.34 0 0 Z " fill="#9E9E9E" transform="translate(812,477)"/>
<path d="M0 0 C4.455 0.99 4.455 0.99 9 2 C5 4 5 4 1.75 3.125 C0.8425 2.75375 -0.065 2.3825 -1 2 C-0.67 1.34 -0.34 0.68 0 0 Z " fill="#272627" transform="translate(579,274)"/>
<path d="M0 0 C0.99 0.33 1.98 0.66 3 1 C0.525 4.465 0.525 4.465 -2 8 C-2.33 6.68 -2.66 5.36 -3 4 C-1.5625 1.75 -1.5625 1.75 0 0 Z " fill="#333233" transform="translate(793,536)"/>
<path d="M0 0 C0.33 0.99 0.66 1.98 1 3 C-0.8125 4.0625 -0.8125 4.0625 -3 5 C-3.99 4.67 -4.98 4.34 -6 4 C-4.60804085 1.2160817 -2.84424221 1.02101003 0 0 Z " fill="#222122" transform="translate(501,276)"/>
<path d="M0 0 C2.04119788 1.61594832 4.04072937 3.2856382 6 5 C6 5.66 6 6.32 6 7 C4.0625 6.1875 4.0625 6.1875 2 5 C1.67 4.01 1.34 3.02 1 2 C0.34 1.67 -0.32 1.34 -1 1 C-0.67 0.67 -0.34 0.34 0 0 Z " fill="#4B4B4C" transform="translate(591,185)"/>
<path d="M0 0 C1.98 0.66 3.96 1.32 6 2 C5.67 2.99 5.34 3.98 5 5 C4.67 4.34 4.34 3.68 4 3 C2.35 3 0.7 3 -1 3 C-0.67 2.01 -0.34 1.02 0 0 Z " fill="#222221" transform="translate(822,74)"/>
</svg>
