<?xml version="1.0" encoding="utf-8"?><svg version="1.1" id="Layer_1" xmlns="http://www.w3.org/2000/svg" xmlns:xlink="http://www.w3.org/1999/xlink" x="0px" y="0px" viewBox="0 0 89.5 122.88" style="enable-background:new 0 0 89.5 122.88" xml:space="preserve"><g><path d="M79.9,36.48c0.04-0.04,0.08-0.08,0.13-0.12l0.08-0.08c-1.17-1.34-2.42-2.5-3.64-3.62c-3.9-3.6-7.42-6.85-7.42-13.64v-1.4h0 H20.44v3.13c0,0.05,0,0.1-0.01,0.16c0.04,5.16-2.68,7.62-6.04,10.65c-1.89,1.71-4.02,3.63-5.85,6.55l1.07,0.05L79.9,36.48 L79.9,36.48z M7.97,42.34c-0.65,0.1-1.23,0.27-1.7,0.52v0c-1.37,3.82-2.23,8.88-2.1,15.84v0.03h0.01v34.11 c0.21,1.49,0.47,2.92,0.77,4.28c0.32,1.42,0.69,2.76,1.1,4.01c1.89,5.68,4.82,9.97,8.79,12.87c3.96,2.9,9,4.46,15.1,4.72v0H60 c6.64-0.76,12.09-2.61,16.18-5.71c4.04-3.07,6.79-7.42,8.09-13.24c0.31-1.4,0.54-2.89,0.69-4.46c0.15-1.59,0.21-3.27,0.18-5.03 v-0.03l-0.01,0V57.27c0-0.13,0.01-0.25,0.03-0.37c0.19-2.17,0.24-4.29,0.14-6.35c-0.11-2.09-0.38-4.09-0.83-5.99 c-0.45-1.87-1.11-3.46-1.9-4.86L7.97,42.34L7.97,42.34z M17.35,0h54.81c2.42,0,4.62,0.99,6.22,2.58c1.59,1.59,2.58,3.79,2.58,6.22 c0,2.42-0.99,4.62-2.58,6.22c-1.36,1.36-3.15,2.27-5.14,2.52v1.49c0,4.98,2.88,7.64,6.07,10.58c3.58,3.31,7.5,6.92,9.2,14 c0.52,2.17,0.83,4.42,0.95,6.73c0.11,2.23,0.05,4.55-0.16,6.93v32.96h-0.01c0.03,1.9-0.03,3.72-0.19,5.44 c-0.16,1.75-0.42,3.41-0.77,4.98c-1.53,6.83-4.81,11.98-9.64,15.65c-4.72,3.59-10.86,5.7-18.23,6.54 c-0.12,0.02-0.24,0.03-0.37,0.03H29.94v-0.01l-0.08,0c-6.99-0.28-12.82-2.11-17.48-5.52c-4.67-3.42-8.1-8.38-10.27-14.92 c-0.47-1.41-0.88-2.88-1.22-4.4C0.56,96.55,0.28,95,0.05,93.39c-0.03-0.14-0.05-0.29-0.05-0.44l0-34.21h0.01 c-0.36-19.44,6.43-25.57,11.6-30.24c2.58-2.33,4.67-4.22,4.67-7.53c-0.01-0.07-0.01-0.13-0.01-0.2v-3.23 c-2-0.24-3.79-1.16-5.15-2.52c-1.59-1.59-2.58-3.79-2.58-6.22c0-2.42,0.99-4.62,2.58-6.22C12.72,0.99,14.92,0,17.35,0L17.35,0z M24.9,69.03h-4.57v-1.4c0-0.65-0.06-1.07-0.18-1.25c-0.12-0.18-0.31-0.27-0.58-0.27c-0.29,0-0.52,0.12-0.67,0.36 c-0.15,0.24-0.23,0.6-0.23,1.09c0,0.63,0.09,1.1,0.26,1.42c0.17,0.32,0.63,0.7,1.39,1.16c2.18,1.3,3.56,2.38,4.12,3.21 c0.57,0.83,0.85,2.18,0.85,4.03c0,1.35-0.16,2.34-0.47,2.98c-0.31,0.64-0.92,1.17-1.83,1.6c-0.9,0.43-1.95,0.65-3.15,0.65 c-1.32,0-2.44-0.25-3.37-0.75c-0.93-0.5-1.53-1.13-1.83-1.9c-0.29-0.77-0.43-1.87-0.43-3.29v-1.24h4.57v2.3 c0,0.71,0.06,1.16,0.19,1.37c0.13,0.2,0.36,0.3,0.68,0.3c0.33,0,0.57-0.13,0.73-0.39c0.16-0.26,0.24-0.64,0.24-1.14 c0-1.11-0.15-1.84-0.45-2.18c-0.32-0.34-1.08-0.92-2.3-1.72c-1.22-0.81-2.03-1.4-2.42-1.77c-0.39-0.37-0.73-0.87-0.99-1.52 c-0.26-0.65-0.39-1.47-0.39-2.48c0-1.45,0.18-2.51,0.55-3.18c0.37-0.67,0.97-1.19,1.79-1.57s1.82-0.57,2.99-0.57 c1.28,0,2.36,0.21,3.26,0.62c0.9,0.41,1.49,0.93,1.78,1.56c0.29,0.63,0.44,1.69,0.44,3.19V69.03L24.9,69.03z M37.83,63.29v12.65 c0,1.44-0.05,2.44-0.14,3.02c-0.1,0.58-0.37,1.18-0.83,1.79c-0.46,0.61-1.06,1.08-1.81,1.39c-0.75,0.31-1.64,0.47-2.66,0.47 c-1.13,0-2.13-0.19-2.99-0.56c-0.87-0.38-1.51-0.86-1.94-1.46c-0.43-0.6-0.68-1.24-0.76-1.9c-0.08-0.67-0.12-2.07-0.12-4.2V63.29 h4.93v14.2c0,0.83,0.04,1.36,0.13,1.58c0.09,0.23,0.27,0.35,0.53,0.35c0.3,0,0.5-0.13,0.59-0.38c0.09-0.26,0.13-0.85,0.13-1.79 V63.29H37.83L37.83,63.29z M50.8,70.28h-4.93v-1.72c0-1.08-0.04-1.76-0.14-2.03c-0.09-0.27-0.31-0.41-0.65-0.41 c-0.29,0-0.5,0.12-0.61,0.35c-0.11,0.23-0.16,0.83-0.16,1.8v9.08c0,0.85,0.05,1.41,0.16,1.68c0.11,0.27,0.32,0.4,0.64,0.4 c0.35,0,0.59-0.15,0.71-0.45c0.12-0.3,0.19-0.9,0.19-1.78v-2.24h-0.96v-2.87h5.74v10.15h-3.1l-0.45-1.36 c-0.33,0.59-0.76,1.02-1.26,1.32c-0.51,0.3-1.11,0.44-1.8,0.44c-0.83,0-1.6-0.2-2.32-0.6c-0.72-0.4-1.26-0.9-1.64-1.49 c-0.37-0.59-0.61-1.21-0.7-1.86c-0.09-0.65-0.14-1.63-0.14-2.93v-5.62c0-1.81,0.1-3.12,0.29-3.94c0.2-0.82,0.75-1.57,1.68-2.25 c0.92-0.68,2.11-1.02,3.58-1.02c1.44,0,2.63,0.3,3.58,0.89c0.95,0.59,1.57,1.3,1.86,2.11c0.29,0.82,0.43,2,0.43,3.55V70.28 L50.8,70.28z M61,63.29l2.82,18.93h-5.03l-0.27-3.4h-1.77l-0.27,3.4h-5.09l2.5-18.93H61L61,63.29z M58.39,75.47 c-0.23-2.15-0.48-4.8-0.75-7.97c-0.49,3.64-0.79,6.29-0.93,7.97H58.39L58.39,75.47z M64.45,63.29h3.48c2.32,0,3.89,0.09,4.71,0.27 c0.82,0.18,1.49,0.64,2.01,1.38c0.52,0.73,0.78,1.91,0.78,3.52c0,1.47-0.18,2.46-0.55,2.97c-0.36,0.51-1.08,0.81-2.16,0.91 c0.97,0.24,1.63,0.57,1.97,0.97c0.33,0.4,0.54,0.78,0.62,1.12c0.08,0.34,0.12,1.27,0.12,2.8v5h-4.57v-6.3 c0-1.01-0.08-1.64-0.24-1.88c-0.16-0.24-0.57-0.36-1.24-0.36v8.54h-4.93V63.29L64.45,63.29z M69.38,66.52v4.21 c0.55,0,0.93-0.08,1.15-0.23c0.22-0.15,0.33-0.65,0.33-1.48v-1.04c0-0.6-0.11-1-0.32-1.18C70.33,66.61,69.94,66.52,69.38,66.52 L69.38,66.52z M72.15,4.17H17.35c-1.27,0-2.43,0.52-3.27,1.36c-0.84,0.84-1.36,2-1.36,3.27s0.52,2.43,1.36,3.27 c0.84,0.84,2,1.36,3.27,1.36l54.81,0c1.27,0,2.43-0.52,3.27-1.36c0.84-0.84,1.36-2,1.36-3.27s-0.52-2.43-1.36-3.27 C74.58,4.69,73.43,4.17,72.15,4.17L72.15,4.17L72.15,4.17z"/><path d="M24.9,69.03h-4.57v-1.4c0-0.65-0.06-1.07-0.18-1.25c-0.12-0.18-0.31-0.27-0.58-0.27c-0.3,0-0.52,0.12-0.67,0.36 c-0.15,0.24-0.23,0.6-0.23,1.09c0,0.63,0.09,1.1,0.26,1.42c0.17,0.31,0.63,0.7,1.39,1.16c2.18,1.3,3.56,2.38,4.12,3.21 c0.57,0.83,0.85,2.18,0.85,4.03c0,1.35-0.16,2.34-0.47,2.98c-0.32,0.64-0.92,1.17-1.83,1.6c-0.9,0.43-1.95,0.65-3.15,0.65 c-1.32,0-2.44-0.25-3.37-0.75c-0.93-0.5-1.54-1.13-1.83-1.9c-0.29-0.77-0.43-1.87-0.43-3.29v-1.24h4.57v2.3 c0,0.71,0.06,1.16,0.19,1.37c0.13,0.2,0.35,0.3,0.68,0.3c0.33,0,0.57-0.13,0.73-0.39c0.16-0.26,0.24-0.64,0.24-1.14 c0-1.11-0.15-1.84-0.45-2.18c-0.31-0.34-1.08-0.92-2.3-1.72c-1.22-0.81-2.03-1.4-2.42-1.77c-0.39-0.37-0.73-0.87-0.99-1.52 c-0.26-0.65-0.39-1.47-0.39-2.48c0-1.45,0.18-2.51,0.55-3.18c0.37-0.67,0.97-1.19,1.79-1.57c0.83-0.38,1.82-0.57,2.99-0.57 c1.28,0,2.36,0.21,3.26,0.62c0.9,0.41,1.49,0.93,1.78,1.56c0.29,0.63,0.44,1.69,0.44,3.19V69.03L24.9,69.03z"/><path d="M37.83,63.29v12.65c0,1.44-0.05,2.44-0.14,3.02c-0.1,0.58-0.37,1.18-0.83,1.79c-0.46,0.61-1.06,1.08-1.81,1.39 c-0.75,0.31-1.64,0.47-2.66,0.47c-1.13,0-2.13-0.19-2.99-0.56c-0.87-0.37-1.51-0.86-1.94-1.46c-0.43-0.6-0.68-1.24-0.76-1.9 c-0.08-0.67-0.12-2.07-0.12-4.2V63.29h4.93v14.2c0,0.83,0.04,1.36,0.13,1.58c0.09,0.23,0.27,0.35,0.53,0.35 c0.3,0,0.5-0.13,0.59-0.38c0.09-0.26,0.13-0.85,0.13-1.79V63.29H37.83L37.83,63.29z"/><path d="M50.8,70.28h-4.93v-1.72c0-1.08-0.04-1.76-0.14-2.03c-0.09-0.28-0.31-0.41-0.65-0.41c-0.3,0-0.5,0.12-0.61,0.35 c-0.11,0.23-0.16,0.83-0.16,1.8v9.08c0,0.85,0.05,1.41,0.16,1.67c0.11,0.27,0.32,0.4,0.64,0.4c0.35,0,0.59-0.15,0.71-0.45 c0.12-0.3,0.19-0.9,0.19-1.78v-2.24h-0.96v-2.87h5.74v10.14h-3.1l-0.45-1.36c-0.34,0.59-0.76,1.02-1.26,1.32 c-0.51,0.3-1.11,0.44-1.8,0.44c-0.83,0-1.6-0.2-2.32-0.6c-0.72-0.4-1.26-0.9-1.64-1.49c-0.38-0.59-0.61-1.21-0.7-1.86 c-0.09-0.65-0.14-1.63-0.14-2.93v-5.62c0-1.81,0.1-3.12,0.29-3.94c0.2-0.82,0.75-1.57,1.67-2.25c0.92-0.68,2.11-1.02,3.58-1.02 c1.44,0,2.63,0.3,3.58,0.89c0.95,0.59,1.57,1.3,1.86,2.11c0.29,0.82,0.43,2,0.43,3.55V70.28L50.8,70.28z"/><path d="M61,63.29l2.82,18.93h-5.03l-0.27-3.4h-1.77l-0.27,3.4h-5.09l2.5-18.93H61L61,63.29z M58.38,75.47 c-0.24-2.15-0.48-4.8-0.75-7.97c-0.49,3.64-0.79,6.29-0.93,7.97H58.38L58.38,75.47z"/><path d="M64.45,63.29h3.48c2.32,0,3.89,0.09,4.71,0.27c0.82,0.18,1.49,0.64,2.01,1.38c0.52,0.73,0.78,1.91,0.78,3.52 c0,1.47-0.18,2.46-0.55,2.97c-0.36,0.51-1.08,0.81-2.16,0.91c0.97,0.24,1.63,0.57,1.97,0.97c0.33,0.4,0.54,0.78,0.62,1.12 c0.08,0.34,0.12,1.27,0.12,2.8v5h-4.57v-6.3c0-1.01-0.08-1.64-0.24-1.88c-0.16-0.24-0.57-0.36-1.24-0.36v8.54h-4.93V63.29 L64.45,63.29z M69.38,66.52v4.21c0.55,0,0.93-0.08,1.15-0.23c0.22-0.15,0.33-0.65,0.33-1.48v-1.04c0-0.6-0.11-1-0.32-1.18 C70.33,66.61,69.94,66.52,69.38,66.52L69.38,66.52z"/></g></svg>